# xmcd
#
# Track frame offsets:
#	150
#	11907
#	24743
#	40101
#	52456
#	65282
#	90037
#	105854
#	118588
#	132553
#	144188
#	160911
#	178730
#	191842
#	199266
#	214680
#	226306
#	236967
#	259267
#	270313
#
# Disc length: 3815 seconds
#
# Revision: 2
# Processed by: cddbd v1.5.2PL0 Copyright (c) Steve Scherf et al.
# Submitted via: audiograbber 1.83.01
#
DISCID=1e0ee514
DTITLE=Various Artist - Spirituals and Gospel Songs - Disc 1
DYEAR=2004
DGENRE=Gospel
TTITLE0=Charioteers - Amen
TTITLE1=Staple Singers - Will The Circle Be Unbroken
TTITLE2=Harmonizing Four - Rock Of Anges
TTITLE3=5 Blind Boys Of Alabama - Just A Closer Walk With Thee
TTITLE4=Swan Silvertones - Working On A Building
TTITLE5=Carolina Spirituals - It's Gonna Rain
TTITLE6=Highway Q C's - Amazing Grace
TTITLE7=Blind Boys Of Mississippi - Where He Leads Me
TTITLE8=Cross Jordan Singers - Early In The Morning
TTITLE9=Caravans - Lord Don't Leave Us Now
TTITLE10=Original Gospel Harmonettes - Step By Step
TTITLE11=Greater Harvest Choir - He Has A Way
TTITLE12=Alex Bradford - Too Close To Heaven
TTITLE13=Argo Singers - See How He Kept Me
TTITLE14=Oak Ridge Boys - Farther Along
TTITLE15=Raspberry Singers - Jesus Is Alright With Me
TTITLE16=Pilgrim Travelers - This Little Light Of Mine
TTITLE17=Clarence Fountain - How Far Am I From Canaan
TTITLE18=Platters - I Believe
TTITLE19=Happy Day Singers - The Old Rugged Cross
EXTD=
EXTT0=
EXTT1=
EXTT2=
EXTT3=
EXTT4=
EXTT5=
EXTT6=
EXTT7=
EXTT8=
EXTT9=
EXTT10=
EXTT11=
EXTT12=
EXTT13=
EXTT14=
EXTT15=
EXTT16=
EXTT17=
EXTT18=
EXTT19=
PLAYORDER=
